<svg width="500" height="500" viewBox="0 0 500 500" fill="none" xmlns="http://www.w3.org/2000/svg">
<path fill-rule="evenodd" clip-rule="evenodd" d="M138.559 39.6902C149.296 16.6653 176.665 6.70379 199.69 17.4404L485.794 150.853C494.586 154.953 498.389 165.403 494.29 174.195V174.195C490.19 182.986 479.74 186.79 470.948 182.69L347.882 125.304C328.172 116.112 304.743 124.64 295.552 144.35V144.35C286.361 164.061 294.888 187.49 314.599 196.681L411.893 242.05C434.918 252.787 444.879 280.156 434.143 303.181L360.877 460.299C350.141 483.324 322.772 493.285 299.747 482.548L15.2447 349.883C5.56825 345.371 1.38179 333.869 5.894 324.192V324.192C10.4062 314.516 21.9084 310.329 31.5849 314.841L166.647 377.822C186.358 387.013 209.787 378.486 218.978 358.775V358.775C228.169 339.065 219.641 315.636 199.931 306.445L89.038 254.734C66.0132 243.998 56.0516 216.629 66.7883 193.604L138.559 39.6902Z" fill="#91B5FD"/>
</svg>
