<svg width="500" height="500" viewBox="0 0 500 500" fill="none" xmlns="http://www.w3.org/2000/svg">
<g clip-path="url(#clip0_359_4)">
<path d="M302.664 430H70.6641C64.3307 430 59.6641 428.667 56.6641 426C53.9974 423 52.6641 418.333 52.6641 412V88C52.6641 81.6667 53.9974 77.1667 56.6641 74.5C59.6641 71.5 64.3307 70 70.6641 70H302.664C308.997 70 313.497 71.5 316.164 74.5C319.164 77.1667 320.664 81.6667 320.664 88V146.5C320.664 152.833 319.164 157.5 316.164 160.5C313.497 163.167 308.997 164.5 302.664 164.5H164.664V203H262.164C268.497 203 272.997 204.5 275.664 207.5C278.664 210.167 280.164 214.667 280.164 221V274.5C280.164 280.833 278.664 285.5 275.664 288.5C272.997 291.167 268.497 292.5 262.164 292.5H164.664V335.5H302.664C308.997 335.5 313.497 337 316.164 340C319.164 342.667 320.664 347.167 320.664 353.5V412C320.664 418.333 319.164 423 316.164 426C313.497 428.667 308.997 430 302.664 430ZM441.871 430H319.871C278.204 430 247.204 421.667 226.871 405C206.871 388.333 196.871 362.667 196.871 328V172.5C196.871 137.833 206.871 112.167 226.871 95.5C247.204 78.5 278.204 70 319.871 70H441.871C448.204 70 452.704 71.5 455.371 74.5C458.371 77.1667 459.871 81.6667 459.871 88V148.5C459.871 154.833 458.371 159.5 455.371 162.5C452.704 165.167 448.204 166.5 441.871 166.5H341.371C331.038 166.5 323.371 168.667 318.371 173C313.371 177 310.871 183.167 310.871 191.5V310.5C310.871 318.833 313.371 325 318.371 329C323.371 332.667 331.038 334.5 341.371 334.5H441.871C448.204 334.5 452.704 336 455.371 339C458.371 341.667 459.871 346.167 459.871 352.5V412C459.871 418.333 458.371 423 455.371 426C452.704 428.667 448.204 430 441.871 430Z" fill="#1090F8"/>
</g>
<defs>
<clipPath id="clip0_359_4">
<rect width="500" height="500" fill="white"/>
</clipPath>
</defs>
</svg>
